<?xml version="1.0" encoding="UTF-8" standalone="no"?>
<svg
   xmlns:dc="http://purl.org/dc/elements/1.1/"
   xmlns:cc="http://creativecommons.org/ns#"
   xmlns:rdf="http://www.w3.org/1999/02/22-rdf-syntax-ns#"
   xmlns:svg="http://www.w3.org/2000/svg"
   xmlns="http://www.w3.org/2000/svg"
   xmlns:sodipodi="http://sodipodi.sourceforge.net/DTD/sodipodi-0.dtd"
   xmlns:inkscape="http://www.inkscape.org/namespaces/inkscape"
   height="83.889999"
   width="83.889999"
   id="svg12"
   xml:space="preserve"
   enable-background="new 0 0 100 100"
   viewBox="0 0 83.889999 83.889999"
   y="0px"
   x="0px"
   version="1.1"
   sodipodi:docname="vinyl_icon_simple.svg"
   inkscape:version="0.92.5 (2060ec1f9f, 2020-04-08)"><sodipodi:namedview
     pagecolor="#ffffff"
     bordercolor="#000000"
     borderopacity="0"
     objecttolerance="10"
     gridtolerance="10"
     guidetolerance="10"
     inkscape:pageopacity="0"
     inkscape:pageshadow="2"
     inkscape:window-width="1920"
     inkscape:window-height="1016"
     id="namedview16"
     showgrid="false"
     inkscape:zoom="5.6568542"
     inkscape:cx="-2.1307767"
     inkscape:cy="36.33305"
     inkscape:window-x="0"
     inkscape:window-y="27"
     inkscape:window-maximized="1"
     inkscape:current-layer="g6" /><metadata
     id="metadata18"><rdf:RDF><cc:Work
         rdf:about=""><dc:format>image/svg+xml</dc:format><dc:type
           rdf:resource="http://purl.org/dc/dcmitype/StillImage" /><dc:title /></cc:Work></rdf:RDF></metadata><defs
     id="defs16" /><g
     transform="matrix(1.0013112,0,0,1.0013112,-7.9329731,-8.3081506)"
     id="g6"><path
       style="clip-rule:evenodd;fill-rule:evenodd;fill:#000000;fill-opacity:1"
       id="path2"
       d="m 49.867585,8.1874153 c -23.165,0 -41.9450003,18.7799997 -41.9450003,41.9449997 0,23.165 18.7800003,41.945 41.9450003,41.945 23.166,0 41.945,-18.78 41.945,-41.945 0,-23.165 -18.779,-41.9449997 -41.945,-41.9449997 z m 0,56.9509997 c -8.287,0 -15.006,-6.719 -15.006,-15.006 0,-8.288 6.719,-15.007 15.006,-15.007 8.287,0 15.006,6.719 15.006,15.007 0,8.288 -6.719,15.006 -15.006,15.006 z"
       inkscape:connector-curvature="0" /><circle
       style="clip-rule:evenodd;fill:#ffffff;fill-rule:evenodd;stroke-width:3.46716166"
       id="circle4"
       cy="50.187344"
       cx="49.81266"
       r="15.479703" /><path
       d="M 71.76907,50.052967 A 21.451271,21.186441 0 0 1 61.006611,68.421913 21.451271,21.186441 0 0 1 39.518644,68.358849"
       id="path4552"
       style="fill:none;stroke:#ffffff;stroke-width:0.80000001;stroke-miterlimit:4;stroke-dasharray:none;stroke-opacity:1"
       inkscape:connector-curvature="0" /><path
       d="M 75.141253,49.186172 A 25.074923,25.614536 0 0 1 62.560748,71.394339 25.074923,25.614536 0 0 1 37.44293,71.318095"
       id="path4552-3"
       style="fill:none;stroke:#ffffff;stroke-width:0.95103723;stroke-miterlimit:4;stroke-dasharray:none;stroke-opacity:1"
       inkscape:connector-curvature="0" /><path
       d="M 78.25786,49.050179 A 28.182608,29.523296 0 0 1 64.118179,74.647296 28.182608,29.523296 0 0 1 35.88736,74.559417"
       id="path4552-3-6"
       style="fill:none;stroke:#ffffff;stroke-width:1.08244896;stroke-miterlimit:4;stroke-dasharray:none;stroke-opacity:1"
       inkscape:connector-curvature="0" /><path
       d="M 82.555882,48.783875 A 31.807331,34.083424 0 0 1 66.597616,78.334687 31.807331,34.083424 0 0 1 34.735873,78.233234"
       id="path4552-3-6-7"
       style="fill:none;stroke:#ffffff;stroke-width:1.23557651;stroke-miterlimit:4;stroke-dasharray:none;stroke-opacity:1"
       inkscape:connector-curvature="0" /><path
       transform="scale(-1)"
       d="m -28.122711,-49.342461 a 21.451271,21.186441 0 0 1 -10.762458,18.368946 21.451271,21.186441 0 0 1 -21.487968,-0.06306"
       id="path4552-5"
       style="fill:none;stroke:#ffffff;stroke-width:0.80000001;stroke-miterlimit:4;stroke-dasharray:none;stroke-opacity:1"
       inkscape:connector-curvature="0" /><path
       transform="scale(-1)"
       d="m -24.2026,-49.981216 a 25.074923,25.614536 0 0 1 -12.580505,22.208166 25.074923,25.614536 0 0 1 -25.117818,-0.07624"
       id="path4552-3-3"
       style="fill:none;stroke:#ffffff;stroke-width:0.95103723;stroke-miterlimit:4;stroke-dasharray:none;stroke-opacity:1"
       inkscape:connector-curvature="0" /><path
       transform="scale(-1)"
       d="m -20.795269,-50.431946 a 28.179855,29.895269 0 0 1 -14.138301,25.919623 28.179855,29.895269 0 0 1 -28.228062,-0.08899"
       id="path4552-3-6-5"
       style="fill:none;stroke:#ffffff;stroke-width:1.08919346;stroke-miterlimit:4;stroke-dasharray:none;stroke-opacity:1"
       inkscape:connector-curvature="0" /><path
       transform="scale(-1)"
       d="m -16.078068,-51.544788 a 33.151909,35.369312 0 0 1 -16.632862,30.665696 33.151909,35.369312 0 0 1 -33.208621,-0.10528"
       id="path4552-3-6-7-6"
       style="fill:none;stroke:#ffffff;stroke-width:1.28499663;stroke-miterlimit:4;stroke-dasharray:none;stroke-opacity:1"
       inkscape:connector-curvature="0" /><circle
       r="3.9947622"
       style="clip-rule:evenodd;fill-rule:evenodd;stroke-width:0.89475143"
       id="circle4-3"
       cy="50.187344"
       cx="49.81266" /></g></svg>